<?xml version="1.0" encoding="UTF-8" standalone="no"?>
<!-- Created with Inkscape (http://www.inkscape.org/) -->

<svg
   width="111.5mm"
   height="111.5mm"
   viewBox="0 0 111.5 111.5"
   version="1.1"
   id="svg1"
   inkscape:version="1.3.2 (091e20e, 2023-11-25, custom)"
   sodipodi:docname="logo2.svg"
   xmlns:inkscape="http://www.inkscape.org/namespaces/inkscape"
   xmlns:sodipodi="http://sodipodi.sourceforge.net/DTD/sodipodi-0.dtd"
   xmlns="http://www.w3.org/2000/svg"
   xmlns:svg="http://www.w3.org/2000/svg">
  <sodipodi:namedview
     id="namedview1"
     pagecolor="#ffffff"
     bordercolor="#000000"
     borderopacity="0.25"
     inkscape:showpageshadow="2"
     inkscape:pageopacity="0.0"
     inkscape:pagecheckerboard="0"
     inkscape:deskcolor="#d1d1d1"
     inkscape:document-units="mm"
     inkscape:zoom="1.0343421"
     inkscape:cx="214.62919"
     inkscape:cy="268.28649"
     inkscape:window-width="1920"
     inkscape:window-height="1017"
     inkscape:window-x="1912"
     inkscape:window-y="-8"
     inkscape:window-maximized="1"
     inkscape:current-layer="layer1" />
  <defs
     id="defs1" />
  <g
     inkscape:label="Warstwa 1"
     inkscape:groupmode="layer"
     id="layer1">
    <rect
       style="fill:#f5df4d;fill-opacity:1;stroke:none;stroke-width:0.338725;stroke-linecap:round;stroke-dasharray:none;stroke-opacity:1"
       id="rect1-2"
       width="111.55951"
       height="111.55951"
       x="0"
       y="0" />
    <path
       id="text1-22"
       style="font-weight:300;font-size:37.022px;line-height:1.25;font-family:Kinetic;-inkscape-font-specification:'Kinetic, Light';letter-spacing:0px;word-spacing:0px;fill:#ffffff;fill-opacity:1;stroke-width:1.54664"
       d="m 91.026772,73.393693 0.63051,-45.191683 h -4.03528 l 0.69356,45.191683 z m 0.45876,9.38947 c 0,0.99738 -0.80855,1.80592 -1.80592,1.80592 -0.9974,0 -1.80592,-0.80854 -1.80592,-1.80592 0,-0.99738 0.80852,-1.80591 1.80592,-1.80591 0.99737,0 1.80592,0.80853 1.80592,1.80591 z m -21.49089,-45.59057 c -4.41151,-4.47049 -9.98552,-6.705743 -16.72203,-6.705743 -6.7365,0 -12.45954,2.453343 -17.16914,7.359973 -4.709593,4.85211 -7.064383,10.76734 -7.064383,17.74567 0,7.08736 2.32498,13.11164 6.974953,18.07279 4.70961,4.90663 10.46245,7.35996 17.25857,7.35996 6.91536,0 12.72782,-2.45333 17.43742,-7.35996 4.70959,-4.96115 7.06439,-10.98543 7.06439,-18.07279 0,-7.41447 -2.59327,-13.54776 -7.77978,-18.3999 z m 2.7721,39.41666 c -5.30573,5.28828 -11.80378,7.93242 -19.49413,7.93242 -7.63073,0 -14.21819,-2.78044 -19.762373,-8.3413 -5.54422,-5.61537 -8.31632,-12.48467 -8.31632,-20.60788 0,-7.90513 2.74227,-14.63814 8.22687,-20.19899 5.484613,-5.615373 12.101873,-8.423073 19.851823,-8.423073 7.98842,0 14.66531,2.78044 20.03069,8.341293 5.36535,5.50634 8.04803,12.2666 8.04803,20.28077 0,8.50483 -2.86153,15.51043 -8.58459,21.01676 z"
       sodipodi:nodetypes="cccccssssscscscscsccscscscsc" />
  </g>
</svg>
